<svg width="16" height="10" viewBox="0 0 16 10" fill="none" xmlns="http://www.w3.org/2000/svg">
<path fill-rule="evenodd" clip-rule="evenodd" d="M5.70703 9.70692C5.5195 9.89439 5.26519 9.99971 5.00003 9.99971C4.73487 9.99971 4.48056 9.89439 4.29303 9.70692L0.293031 5.70692C0.105559 5.51939 0.000244141 5.26508 0.000244141 4.99992C0.000244141 4.73475 0.105559 4.48045 0.293031 4.29292L4.29303 0.292919C4.48163 0.110761 4.73423 0.00996641 4.99643 0.0122448C5.25863 0.0145233 5.50944 0.119692 5.69485 0.305101C5.88026 0.490509 5.98543 0.741321 5.9877 1.00352C5.98998 1.26571 5.88919 1.51832 5.70703 1.70692L3.41403 3.99992H15C15.2652 3.99992 15.5196 4.10528 15.7071 4.29281C15.8947 4.48035 16 4.7347 16 4.99992C16 5.26514 15.8947 5.51949 15.7071 5.70703C15.5196 5.89456 15.2652 5.99992 15 5.99992H3.41403L5.70703 8.29292C5.8945 8.48045 5.99982 8.73475 5.99982 8.99992C5.99982 9.26508 5.8945 9.51939 5.70703 9.70692Z" fill="black"/>
</svg>
